<?xml version="1.0" encoding="utf-8"?>
<?xml-stylesheet type="text/xsl" href="rss1.xsl"?>
<rss version="2.0" xmlns:atom="http://www.w3.org/2005/Atom" xmlns:content="http://purl.org/rss/1.0/modules/content/" xmlns:dc="http://purl.org/dc/elements/1.1/" xmlns:media="http://search.yahoo.com/mrss/">
<channel>
 <title>Getty</title>
 <link>http://www.gettyimg.com/</link>
 <atom:link href="http://www.gettyimg.com/" rel="self" type="application/rss+xml" />

 
                <item>
                <title><![CDATA[【Cinema Center】MOVIE - Spider-Man: Across the Spider-Verse (2023) 1080p WEB-DL DDP5.1 Atmos]]></title>
                <link><![CDATA[https://sharemania.us/threads/spider-man-across-the-spider-verse-2023-1080p-web-dl-ddp5-1-atmos.222240/]]></link>
                <description><![CDATA[<article>
<blockquote class="messageText SelectQuoteContainer ugc baseHtml">
<img src="https://images2.imgbox.com/e1/31/1GXUoo9F_o.jpeg" class="bbCodeImage LbImage" alt="[​IMG]" data-url="https://images2.imgbox.com/e1/31/1GXUoo9F_o.jpeg" style=""><br>
<div style="text-align: center"><b>140min (2023)<br>
<br>
When the heroes clash on how to handle a new threat, Miles must redefine what it means to be a hero.Miles Morales catapults across the Multiverse, where he encounters a team of Spider-People charged with protecting its very existence.<br>
<br>
1080p h264:<br>
<div class="bbCodeBlock bbCodeVfcHH HiddenContent">
<div class="attribution type">Hidden Content:</div>
<blockquote>You must reply before you can see the hidden data contained here.</blockquote>
</div></b>​</div><b>Screenshots<br>
<img src="https://images2.imgbox.com/66/04/G9YymLNn_o.png" class="bbCodeImage LbImage" alt="[​IMG]" data-url="https://images2.imgbox.com/66/04/G9YymLNn_o.png" style=""> <br>
<img src="https://images2.imgbox.com/dc/85/vGAlgAed_o.png" class="bbCodeImage LbImage" alt="[​IMG]" data-url="https://images2.imgbox.com/dc/85/vGAlgAed_o.png" style=""> <br>
<img src="https://images2.imgbox.com/46/72/cP6IYSRP_o.png" class="bbCodeImage LbImage" alt="[​IMG]" data-url="https://images2.imgbox.com/46/72/cP6IYSRP_o.png" style=""> </b>
<div class="messageTextEndMarker">&nbsp;</div>
</blockquote>
</article>]]></description>
                <author><![CDATA[Cauã]]></author>
                </item>

                
                <item>
                <title><![CDATA[【HD Live Performances】UPSCALE - 4K - Katy Perry - Swish Swish Live on The Voice Australia - 4K Remaster]]></title>
                <link><![CDATA[https://sharemania.us/threads/4k-katy-perry-swish-swish-live-on-the-voice-australia-4k-remaster.222239/]]></link>
                <description><![CDATA[<article>
<blockquote class="messageText SelectQuoteContainer ugc baseHtml">
<b>Here is a 4K remaster of Katy Perry performing Swish Swish on The Voice in Australia. This remaster removes a good chunk of pixelation while increasing clarity and doubling the resolution from 1080p to 4K.</b><br>
<div style="text-align: center">​</div>
<div class="ToggleTriggerAnchor bbCodeSpoilerContainer">
<button type="button" class="button bbCodeSpoilerButton ToggleTrigger Tooltip JsOnly" data-target="> .SpoilerTarget"><span>Spoiler: <span class="SpoilerTitle">Mediainfo</span></span></button>
<div class="SpoilerTarget bbCodeSpoilerText">Format : MPEG-4<br>
Format profile : Base Media<br>
Codec ID : isom (isom/iso2/avc1/mp41)<br>
File size : 1.94 GiB<br>
Duration : 3 min 26 s<br>
Overall bit rate : 80.6 Mb/s<br>
Frame rate : 25.000 FPS<br>
Writing application : Lavf58.20.100<br>
Video<br>
ID : 1<br>
Format : AVC<br>
Format/Info : Advanced Video Codec<br>
Format profile : Constrained Baseline@L5.1<br>
Format settings : 1 Ref Frames<br>
Format settings, CABAC : No<br>
Format settings, Reference frames : 1 frame<br>
Format settings, GOP : M=1, N=12<br>
Codec ID : avc1<br>
Codec ID/Info : Advanced Video Coding<br>
Duration : 3 min 26 s<br>
Bit rate : 80.5 Mb/s<br>
Width : 3 840 pixels<br>
Height : 2 160 pixels<br>
Display aspect ratio : 16:9<br>
Frame rate mode : Constant<br>
Frame rate : 25.000 FPS<br>
Color space : YUV<br>
Chroma subsampling : 4:2:0<br>
Bit depth : 8 bits<br>
Scan type : Progressive<br>
Bits/(Pixel*Frame) : 0.388<br>
Stream size : 1.94 GiB (100%)<br>
Writing library : x264 core 157 r2970 5493be8<br>
Encoding settings : cabac=0 / ref=1 / deblock=0:0:0 / analyse=0:0 / me=dia / subme=0 / psy=1 / psy_rd=1.00:0.00 / mixed_ref=0 / me_range=16 / chroma_me=1 / trellis=0 / 8x8dct=0 / cqm=0 / deadzone=21,11 / fast_pskip=1 / chroma_qp_offset=0 / threads=8 / lookahead_threads=1 / sliced_threads=0 / nr=0 / decimate=1 / interlaced=0 / bluray_compat=0 / constrained_intra=0 / bframes=0 / weightp=0 / keyint=12 / keyint_min=1 / scenecut=0 / intra_refresh=0 / rc=crf / mbtree=0 / crf=19.0 / qcomp=0.60 / qpmin=0 / qpmax=69 / qpstep=4 / ip_ratio=1.40 / aq=0<br>
Color range : Limited<br>
Color primaries : BT.709<br>
Transfer characteristics : BT.709<br>
Matrix coefficients : BT.709<br>
Codec configuration box : avcC<br>
Audio<br>
ID : 2<br>
Format : AAC LC<br>
Format/Info : Advanced Audio Codec Low Complexity<br>
Codec ID : mp4a-40-2<br>
Duration : 3 min 26 s<br>
Bit rate mode : Constant<br>
Bit rate : 96.0 kb/s<br>
Channel(s) : 2 channels<br>
Channel layout : L R<br>
Sampling rate : 48.0 kHz<br>
Frame rate : 46.875 FPS (1024 SPF)<br>
Compression mode : Lossy<br>
Stream size : 2.38 MiB (0%)<br>
Default : Yes<br>
Alternate group : 1</div>
</div><div style="text-align: center"><br>
<span style="font-size: 18px">Screencaps:<br>
<img src="https://images2.imgbox.com/88/f8/7j7YZBRd_o.jpg" class="bbCodeImage LbImage" alt="[​IMG]" data-url="https://images2.imgbox.com/88/f8/7j7YZBRd_o.jpg" style=""> </span><br>
<span style="font-family: 'Arial'"><span style="font-size: 26px"><span style="color: #ff4d4d"><b>DOWNLOAD:</b></span></span></span><br>
<div class="bbCodeBlock bbCodeVfcHH HiddenContent">
<div class="attribution type">Hidden Content:</div>
<blockquote>You must reply before you can see the hidden data contained here.</blockquote>
</div><br>
<img src="https://images2.imgbox.com/75/11/lQm8FlL5_o.gif" class="bbCodeImage LbImage" alt="[​IMG]" data-url="https://images2.imgbox.com/75/11/lQm8FlL5_o.gif" style=""> ​</div>
<div class="messageTextEndMarker">&nbsp;</div>
</blockquote>
</article>]]></description>
                <author><![CDATA[Gagawuv]]></author>
                </item>

                
                <item>
                <title><![CDATA[【Singers/Musicians】Nelly Furtado : Sexy Wallpapers x 6]]></title>
                <link><![CDATA[https://sharemania.us/threads/nelly-furtado-sexy-wallpapers-x-6.222238/]]></link>
                <description><![CDATA[<article>
<blockquote class="messageText SelectQuoteContainer ugc baseHtml">
<a href="https://www.imagebam.com/view/MELQ0S5" target="_blank" class="externalLink" rel="nofollow"><img src="https://thumbs4.imagebam.com/45/b0/fe/MELQ0S5_t.jpg" class="bbCodeImage LbImage" alt="[​IMG]" data-url="https://thumbs4.imagebam.com/45/b0/fe/MELQ0S5_t.jpg"></a> <a href="https://www.imagebam.com/view/MELQ0S6" target="_blank" class="externalLink" rel="nofollow"><img src="https://thumbs4.imagebam.com/99/08/e7/MELQ0S6_t.jpg" class="bbCodeImage LbImage" alt="[​IMG]" data-url="https://thumbs4.imagebam.com/99/08/e7/MELQ0S6_t.jpg"></a> <a href="https://www.imagebam.com/view/MELQ0S7" target="_blank" class="externalLink" rel="nofollow"><img src="https://thumbs4.imagebam.com/48/6e/60/MELQ0S7_t.jpg" class="bbCodeImage LbImage" alt="[​IMG]" data-url="https://thumbs4.imagebam.com/48/6e/60/MELQ0S7_t.jpg"></a> <a href="https://www.imagebam.com/view/MELQ0S8" target="_blank" class="externalLink" rel="nofollow"><img src="https://thumbs4.imagebam.com/e0/c2/0c/MELQ0S8_t.jpg" class="bbCodeImage LbImage" alt="[​IMG]" data-url="https://thumbs4.imagebam.com/e0/c2/0c/MELQ0S8_t.jpg"></a> <a href="https://www.imagebam.com/view/MELQ0S9" target="_blank" class="externalLink" rel="nofollow"><img src="https://thumbs4.imagebam.com/16/00/30/MELQ0S9_t.jpg" class="bbCodeImage LbImage" alt="[​IMG]" data-url="https://thumbs4.imagebam.com/16/00/30/MELQ0S9_t.jpg"></a> <a href="https://www.imagebam.com/view/MELQ0SA" target="_blank" class="externalLink" rel="nofollow"><img src="https://thumbs4.imagebam.com/70/bd/e4/MELQ0SA_t.jpg" class="bbCodeImage LbImage" alt="[​IMG]" data-url="https://thumbs4.imagebam.com/70/bd/e4/MELQ0SA_t.jpg"></a> <br>
<br>
<a href="https://www.imagebam.com/view/GA842R" target="_blank" class="externalLink" rel="nofollow">https://www.imagebam.com/view/GA842R</a>
<div class="messageTextEndMarker">&nbsp;</div>
</blockquote>
</article>]]></description>
                <author><![CDATA[Alpha]]></author>
                </item>

                </channel></rss>